<svg height="1966" width="720" xmlns="http://www.w3.org/2000/svg">
<rect height="1966" fill="#555" width="720"></rect>
<text fill="#7f7" font-family="Courier New" font-size="12" xml:space="preserve">
<tspan x="10" y="26"></tspan>
<tspan x="10" y="42">&gt; npmdoc-lru-cache@0.0.2 test /home/travis/build/npmdoc/node-npmdoc-lru-cache</tspan>
<tspan x="10" y="58">&gt; (set -e; export PORT=$(utility2 shServerPortRandom); utility2 test test.js)</tspan>
<tspan x="10" y="74"></tspan>
<tspan x="10" y="90"></tspan>
<tspan x="10" y="106">[MODE_BUILD=npmTest] - 2017-03-26T09:54:57Z - npm-testing /home/travis/build/npmdoc/node-npmdoc-\</tspan>
<tspan x="10" y="122">lru-cache</tspan>
<tspan x="10" y="138"></tspan>
<tspan x="10" y="154"></tspan>
<tspan x="10" y="170">covering $ /home/travis/.nvm/versions/node/v6.10.1/bin/node /home/travis/build/npmdoc/node-npmdo\</tspan>
<tspan x="10" y="186">c-lru-cache/test.js</tspan>
<tspan x="10" y="202">merging file:///home/travis/build/npmdoc/node-npmdoc-lru-cache/tmp/build/test-report.json to tes\</tspan>
<tspan x="10" y="218">t-report</tspan>
<tspan x="10" y="234">&gt; server listening on http-port 43345</tspan>
<tspan x="10" y="250">created apidoc file:///home/travis/build/npmdoc/node-npmdoc-lru-cache/tmp/build/apidoc.html</tspan>
<tspan x="10" y="266"></tspan>
<tspan x="10" y="282"></tspan>
<tspan x="10" y="298">browserTest - created electron entry-page /home/travis/build/npmdoc/node-npmdoc-lru-cache/tmp/el\</tspan>
<tspan x="10" y="314">ectron.15b0a0a4a9b0.8e1583fc9cca2.html</tspan>
<tspan x="10" y="330"></tspan>
<tspan x="10" y="346">[node test-case 1 of 6 passed] - testCase_buildLib_default</tspan>
<tspan x="10" y="362">[node test-case 2 of 6 passed] - testCase_buildReadme_default</tspan>
<tspan x="10" y="378">[node test-case 3 of 6 passed] - testCase_buildTest_default</tspan>
<tspan x="10" y="394"></tspan>
<tspan x="10" y="410">browserTest - created electron entry-page /home/travis/build/npmdoc/node-npmdoc-lru-cache/tmp/el\</tspan>
<tspan x="10" y="426">ectron.15b0a0a4ae90.2e02b5f81be97.html</tspan>
<tspan x="10" y="442"></tspan>
<tspan x="10" y="458">Xlib:  extension "RANDR" missing on display ":99.0".</tspan>
<tspan x="10" y="474">Xlib:  extension "RANDR" missing on display ":99.0".</tspan>
<tspan x="10" y="490">&gt; server listening on http-port 46724</tspan>
<tspan x="10" y="506">merging file:///home/travis/build/npmdoc/node-npmdoc-lru-cache/tmp/build/test-report.json to tes\</tspan>
<tspan x="10" y="522">t-report</tspan>
<tspan x="10" y="538">Xlib:  extension "RANDR" missing on display ":99.0".</tspan>
<tspan x="10" y="554">[4698:0326/095459:WARNING:audio_manager.cc(314)] Multiple instances of AudioManager detected</tspan>
<tspan x="10" y="570">[4698:0326/095459:WARNING:audio_manager.cc(275)] Multiple instances of AudioManager detected</tspan>
<tspan x="10" y="586">[4722:0326/095459:ERROR:sandbox_linux.cc(343)] InitializeSandbox() called with multiple threads \</tspan>
<tspan x="10" y="602">in process gpu-process. </tspan>
<tspan x="10" y="618">[4698:0326/095459:ERROR:browser_gpu_channel_host_factory.cc(131)] Failed to create channel.</tspan>
<tspan x="10" y="634">merging file:///home/travis/build/npmdoc/node-npmdoc-lru-cache/tmp/build/test-report.json to tes\</tspan>
<tspan x="10" y="650">t-report</tspan>
<tspan x="10" y="666">Xlib:  extension "RANDR" missing on display ":99.0".</tspan>
<tspan x="10" y="682">[4689:0326/095459:WARNING:audio_manager.cc(314)] Multiple instances of AudioManager detected</tspan>
<tspan x="10" y="698">[4689:0326/095459:WARNING:audio_manager.cc(275)] Multiple instances of AudioManager detected</tspan>
<tspan x="10" y="714">[4752:0326/095459:ERROR:sandbox_linux.cc(343)] InitializeSandbox() called with multiple threads \</tspan>
<tspan x="10" y="730">in process gpu-process. </tspan>
<tspan x="10" y="746">[4689:0326/095459:ERROR:browser_gpu_channel_host_factory.cc(131)] Failed to create channel.</tspan>
<tspan x="10" y="762"></tspan>
<tspan x="10" y="778">browserTest - opened url http://127.0.0.1:43345?modeTest=1</tspan>
<tspan x="10" y="794"></tspan>
<tspan x="10" y="810"></tspan>
<tspan x="10" y="826">browserTest - opened url file:///home/travis/build/npmdoc/node-npmdoc-lru-cache/tmp/build/apidoc\</tspan>
<tspan x="10" y="842">.html</tspan>
<tspan x="10" y="858"></tspan>
<tspan x="10" y="874">[4698:0326/095501:INFO:CONSOLE(203)] "----------|-----------|-----------|-----------|-----------\</tspan>
<tspan x="10" y="890">|</tspan>
<tspan x="10" y="906">File      |   % Stmts |% Branches |   % Funcs |   % Lines |</tspan>
<tspan x="10" y="922">----------|-----------|-----------|-----------|-----------|</tspan>
<tspan x="10" y="938">----------|-----------|-----------|-----------|-----------|</tspan>
<tspan x="10" y="954">All files |       100 |       100 |       100 |       100 |</tspan>
<tspan x="10" y="970">----------|-----------|-----------|-----------|-----------|</tspan>
<tspan x="10" y="986">", source: file:///home/travis/build/npmdoc/node-npmdoc-lru-cache/tmp/electron.15b0a0a4ae90.2e02\</tspan>
<tspan x="10" y="1002">b5f81be97.html (203)</tspan>
<tspan x="10" y="1018">[4698:0326/095501:INFO:CONSOLE(203)] "created coverage file:///tmp/build/coverage.html/index.htm\</tspan>
<tspan x="10" y="1034">l", source: file:///home/travis/build/npmdoc/node-npmdoc-lru-cache/tmp/electron.15b0a0a4ae90.2e0\</tspan>
<tspan x="10" y="1050">2b5f81be97.html (203)</tspan>
<tspan x="10" y="1066">[node test-case 4 of 6 passed] - testCase_buildApp_default</tspan>
<tspan x="10" y="1082"></tspan>
<tspan x="10" y="1098">browserTest - created screen-capture file:///home/travis/build/npmdoc/node-npmdoc-lru-cache/tmp/\</tspan>
<tspan x="10" y="1114">build/screen-capture.npmTest.browser..png</tspan>
<tspan x="10" y="1130"></tspan>
<tspan x="10" y="1146"></tspan>
<tspan x="10" y="1162">browserTest - exit-code 0 - http://127.0.0.1:43345?modeTest=1</tspan>
<tspan x="10" y="1178"></tspan>
<tspan x="10" y="1194"></tspan>
<tspan x="10" y="1210">browserTest - merged coverage from /home/travis/build/npmdoc/node-npmdoc-lru-cache/tmp/coverage.\</tspan>
<tspan x="10" y="1226">npmTest.browser.%2F.json</tspan>
<tspan x="10" y="1242"></tspan>
<tspan x="10" y="1258"></tspan>
<tspan x="10" y="1274">browserTest - merging test-report from /home/travis/build/npmdoc/node-npmdoc-lru-cache/tmp/test-\</tspan>
<tspan x="10" y="1290">report.npmTest.browser.%2F.json</tspan>
<tspan x="10" y="1306"></tspan>
<tspan x="10" y="1322">[node test-case 5 of 6 passed] - testCase_webpage_default</tspan>
<tspan x="10" y="1338"></tspan>
<tspan x="10" y="1354">browserTest - created screen-capture file:///home/travis/build/npmdoc/node-npmdoc-lru-cache/tmp/\</tspan>
<tspan x="10" y="1370">build/screen-capture.npmTest.browser._2Fhome_2Ftravis_2Fbuild_2Fnpmdoc_2Fnode-npmdoc-lru-cache_2\</tspan>
<tspan x="10" y="1386">Ftmp_2Fbuild_2Fapidoc.html.png</tspan>
<tspan x="10" y="1402"></tspan>
<tspan x="10" y="1418"></tspan>
<tspan x="10" y="1434">browserTest - exit-code 0 - file:///home/travis/build/npmdoc/node-npmdoc-lru-cache/tmp/build/api\</tspan>
<tspan x="10" y="1450">doc.html</tspan>
<tspan x="10" y="1466"></tspan>
<tspan x="10" y="1482">[node test-case 6 of 6 passed] - testCase_buildApidoc_default</tspan>
<tspan x="10" y="1498">------------------------------|-----------|-----------|-----------|-----------|</tspan>
<tspan x="10" y="1514">File                          |   % Stmts |% Branches |   % Funcs |   % Lines |</tspan>
<tspan x="10" y="1530">------------------------------|-----------|-----------|-----------|-----------|</tspan>
<tspan x="10" y="1546">   node-npmdoc-lru-cache/     |       100 |       100 |       100 |       100 |</tspan>
<tspan x="10" y="1562">      example.js              |       100 |       100 |       100 |       100 |</tspan>
<tspan x="10" y="1578">      lib.npmdoc_lru_cache.js |       100 |       100 |       100 |       100 |</tspan>
<tspan x="10" y="1594">      test.js                 |       100 |       100 |       100 |       100 |</tspan>
<tspan x="10" y="1610">------------------------------|-----------|-----------|-----------|-----------|</tspan>
<tspan x="10" y="1626">All files                     |       100 |       100 |       100 |       100 |</tspan>
<tspan x="10" y="1642">------------------------------|-----------|-----------|-----------|-----------|</tspan>
<tspan x="10" y="1658"></tspan>
<tspan x="10" y="1674">created coverage file:///home/travis/build/npmdoc/node-npmdoc-lru-cache/tmp/build/coverage.html/\</tspan>
<tspan x="10" y="1690">index.html</tspan>
<tspan x="10" y="1706">merging file:///home/travis/build/npmdoc/node-npmdoc-lru-cache/tmp/build/test-report.json to tes\</tspan>
<tspan x="10" y="1722">t-report</tspan>
<tspan x="10" y="1738"></tspan>
<tspan x="10" y="1754">-------------------------------------------------------</tspan>
<tspan x="10" y="1770">| test-report - buildNpmdoc - node - linux v6.10.1 - 2017-03-26T09:54:47.832Z</tspan>
<tspan x="10" y="1786">|   15817 ms            0 failed        6 passed      |</tspan>
<tspan x="10" y="1802">-------------------------------------------------------</tspan>
<tspan x="10" y="1818"></tspan>
<tspan x="10" y="1834">created test-report file:///home/travis/build/npmdoc/node-npmdoc-lru-cache/tmp/build/test-report\</tspan>
<tspan x="10" y="1850">.html</tspan>
<tspan x="10" y="1866"></tspan>
<tspan x="10" y="1882"></tspan>
<tspan x="10" y="1898">npmTest - 0 failed tests</tspan>
<tspan x="10" y="1914"></tspan>
<tspan x="10" y="1930"></tspan>
<tspan x="10" y="1946">[MODE_BUILD=npmTest] - 2017-03-26T09:55:06Z - EXIT_CODE - 0</tspan>
</text>
</svg>
